<svg width="16" height="16" viewBox="0 0 16 16" fill="none" xmlns="http://www.w3.org/2000/svg">
<path d="M12.4986 10.6137L11.8019 9.36508C10.4902 9.41941 9.57159 8.72019 9.23429 7.97882C8.98889 7.43977 9.05228 6.89417 9.40407 6.51904C9.62501 6.28347 9.91115 6.17481 10.2095 6.21275C10.5255 6.25349 10.8112 6.45066 10.9733 6.74149C11.3025 7.33112 11.015 7.81163 11.0027 7.8313L10.9729 7.87954L11.6094 9.01945L11.6927 8.92719C11.9839 8.60545 12.5792 7.4852 11.8526 6.18278C11.2694 5.13793 10.1783 4.77872 9.25783 5.32854C9.24198 5.33791 9.22704 5.34774 9.21165 5.35758C9.07401 4.62511 8.7512 3.8341 8.24955 3L7.55276 4.24857C8.25407 5.39645 8.12821 6.56915 7.67591 7.24167C7.34721 7.73108 6.85869 7.94698 6.36881 7.81912C6.06094 7.73904 5.82686 7.53719 5.7096 7.25057C5.58554 6.94709 5.60818 6.59256 5.77027 6.3022C6.09942 5.71257 6.64499 5.7299 6.66808 5.73084L6.72331 5.73365L7.35989 4.59373L7.24081 4.56516C6.82609 4.46541 5.59007 4.4921 4.8634 5.79406C4.28025 6.83891 4.52519 7.99615 5.44564 8.54597C5.46149 8.55534 5.47734 8.56424 5.49273 8.57314C4.94852 9.06254 4.44732 9.74724 4 10.6141H5.39403C6.00434 9.41192 7.0493 8.93843 7.83845 9.00728C8.41254 9.05692 8.83767 9.38663 8.97576 9.88914C9.06269 10.2048 9.01063 10.5158 8.82952 10.7635C8.63756 11.0263 8.32923 11.1836 8.00506 11.1836C7.34676 11.1836 7.08823 10.6862 7.07782 10.6652L7.05247 10.6141H5.77978L5.81554 10.735C5.9396 11.1564 6.57934 12.25 8.03313 12.25C9.19942 12.25 10.0461 11.452 10.0461 10.3528C10.0461 10.3336 10.0452 10.3153 10.0447 10.2966C10.727 10.5392 11.5506 10.646 12.5 10.6137H12.4986Z" fill="currentColor" />
</svg>
